<svg version="1.1" viewBox="0 0 16 16" xmlns="http://www.w3.org/2000/svg">
 <path class="error" d="m3 14.396c0 0.33352 0.33128 0.60384 0.73733 0.60384h8.5253c0.40787 0 0.73733-0.27032 0.73733-0.60384v-11.715c0-0.334-0.33008-0.60384-0.73733-0.60384h-1.5137v-0.47396c0-0.33401-0.3283-0.60384-0.73733-0.60384h-3.9593c-0.40784-5.2067e-4 -0.74012 0.26984-0.74012 0.60384v0.47396h-1.5749c-0.40605 0-0.73733 0.26982-0.73733 0.60384zm1.1964-0.96845v-9.4605c0-0.29381 0.28676-0.53321 0.64552-0.53321h6.3161c0.35875 0 0.64552 0.2394 0.64552 0.53321v9.4605c0 0.2938-0.28676 0.52865-0.64552 0.52865h-6.3161c-0.35875 0-0.64552-0.23484-0.64552-0.52865z" fill="#d33636" stroke-width="1.1051"/>
 <g class="error" transform="matrix(.79012 0 0 .79012 1.6777 2.3726)" fill="#d33636" fill-rule="evenodd">
  <path class="success" d="m7.9956 4.625c0.57306 0 1.0385 0.16438 1.3975 0.49365 0.35895 0.32317 0.53906 0.73755 0.53906 1.2437 0 0.21951-0.060525 0.44236-0.18018 0.66797-0.11965 0.22561-0.22635 0.3873-0.32081 0.48486-0.088162 0.091463-0.2142 0.21108-0.37793 0.35742l-0.046875 0.045412c-0.38414 0.33537-0.57715 0.67098-0.57715 1.0063v0.36475h-0.8877v-0.4292c0-0.27439 0.060525-0.50947 0.18018-0.70459 0.11965-0.20122 0.33054-0.4363 0.63281-0.70459 0.17003-0.15244 0.28962-0.26521 0.35889-0.33838 0.075568-0.079268 0.14753-0.18519 0.2168-0.31934 0.075568-0.14024 0.11426-0.28432 0.11426-0.43066 0-0.28049-0.09526-0.50603-0.28418-0.67676-0.18262-0.17073-0.43719-0.25635-0.76465-0.25635-0.54157 0-0.91323 0.29354-1.1147 0.87891l-0.81296-0.32959c0.13224-0.34756 0.35999-0.65872 0.68115-0.93311 0.32746-0.28049 0.7428-0.42041 1.2466-0.42041z"/>
  <path class="success" d="m7.9853 10.131c0.18262 0 0.33445 0.06116 0.4541 0.18311 0.12595 0.12195 0.18896 0.26726 0.18896 0.43799s-0.063023 0.3175-0.18896 0.43945c-0.11962 0.12195-0.27145 0.18311-0.45407 0.18311s-0.33694-0.06115-0.46289-0.18311c-0.11965-0.12195-0.17872-0.26872-0.17872-0.43945s0.059063-0.31604 0.17871-0.43799c0.12595-0.12195 0.28027-0.18311 0.46289-0.18311z"/>
 </g>
</svg>
