<svg version="1.1" viewBox="0 0 16 16" xmlns="http://www.w3.org/2000/svg">
 <path d="m4.1968 8.7111h7.6127v-4.725c9e-6 -0.31255-0.28697-0.56275-0.646-0.56275h-6.3207c-0.35901 0-0.64599 0.25021-0.64599 0.56275z" fill="#bebebe" fill-opacity=".15686" stroke-width="1.1401"/>
 <path class="success" d="m4.1978 13.437 0.00289 0.49833c0 0.01483 0.28676 0.0267 0.64552 0.0267h6.316c0.35876 0 0.64553-0.01187 0.64552-0.0267v-0.49833z" fill="#15c931" stroke-width=".24826"/>
 <path d="m3.0001 14.396c0 0.33353 0.33128 0.60386 0.73734 0.60386h8.5253c0.40786 0 0.73734-0.27033 0.73734-0.60386v-11.714c0-0.334-0.33008-0.60386-0.73734-0.60386h-1.5136v-0.47397c0-0.33401-0.32829-0.60386-0.73734-0.60386h-3.9594c-0.40784-5.2067e-4 -0.74012 0.26985-0.74012 0.60386v0.47397h-1.5748c-0.40605 0-0.73734 0.26983-0.73734 0.60386zm1.1964-0.96843v-9.4612c0-0.29381 0.28676-0.53322 0.64552-0.53322h6.316c0.35876 0 0.64552 0.23941 0.64552 0.53322v9.4612c0 0.29381-0.28676 0.52866-0.64552 0.52866h-6.316c-0.35876 0-0.64552-0.23485-0.64552-0.52866z" fill="#bebebe" stroke-width="1.105"/>
 <g transform="matrix(0 -.87506 1.0685 0 -11.484 17.615)" fill-opacity=".66667">
  <path d="m8.0662 14.676v0.0026l2.1249-0.0026z" fill="#bebebe" stroke-width=".94575"/>
  <rect class="success" x="4.7749" y="14.677" width="5.4" height="7.122" fill="#15c931" fill-opacity="1" stroke-linecap="round" stroke-width="4.346"/>
  <path class="info" d="m9.5208 15.739h0.02672l1.6775 2.7733 4.4713-1.6614-4.8483 3.8879-1.6804-2.7759-4.4713 1.6614z" fill="#0d68c3" fill-opacity="1" opacity=".8" stroke-width="1.0098"/>
 </g>
</svg>
