<svg version="1.1" viewBox="0 0 16 16" xmlns="http://www.w3.org/2000/svg">
 <path d="m4.1968 5.5609h7.6127v-1.91c9e-6 -0.12634-0.28697-0.22748-0.646-0.22748h-6.3207c-0.35901 0-0.64599 0.10114-0.64599 0.22748z" fill="#bebebe" fill-opacity=".15686" stroke-width=".72488"/>
 <path class="success" d="m4.1978 13.437 0.00288 0.49833c0 0.01483 0.28676 0.0267 0.64552 0.0267h6.316c0.35876 0 0.64553-0.01187 0.64552-0.0267v-0.49833z" fill="#15c931" stroke-width=".24826"/>
 <path d="m3.0001 14.396c0 0.33353 0.33128 0.60386 0.73734 0.60386h8.5253c0.40786 0 0.73734-0.27033 0.73734-0.60386v-11.714c0-0.334-0.33008-0.60386-0.73734-0.60386h-1.5136v-0.47397c0-0.33401-0.32829-0.60386-0.73734-0.60386h-3.9594c-0.40784-5.2066e-4 -0.74012 0.26985-0.74012 0.60386v0.47397h-1.5748c-0.40605 0-0.73734 0.26983-0.73734 0.60386zm1.1964-0.96843v-9.4612c0-0.29381 0.28676-0.53322 0.64552-0.53322h6.316c0.35876 0 0.64552 0.23941 0.64552 0.53322v9.4612c0 0.29381-0.28676 0.52866-0.64552 0.52866h-6.316c-0.35876 0-0.64552-0.23485-0.64552-0.52866z" fill="#bebebe" stroke-width="1.105"/>
 <path d="m4.1968 10.556h0.00278l-0.00278-1.8594z" fill="#bebebe" fill-opacity=".66667" stroke-width=".91449"/>
 <rect class="success" transform="rotate(-90)" x="-13.437" y="4.1978" width="7.8756" height="7.6098" fill="#15c931" stroke-linecap="round" stroke-width="5.4253"/>
 <path class="info" d="m5.3326 9.2836v-0.023382l2.9632-1.4679-1.7752-3.9127 4.1542 4.2426-2.966 1.4705 1.7752 3.9127z" fill="#0d68c3" opacity=".8" stroke-width=".97643"/>
</svg>
