<svg version="1.1" viewBox="0 0 16 16" xmlns="http://www.w3.org/2000/svg">
 <path class="error" d="m4.1957 13.082 0.00288 0.83056c0 0.02472 0.28676 0.04451 0.64552 0.04451h6.316c0.35876 0 0.64553-0.01979 0.64552-0.04451v-0.83056z" fill="#d33636" stroke-width=".32052"/>
 <g fill="#bebebe">
  <path d="m4.1978 13.082h7.6071v-8.626c8e-6 -0.5706-0.28677-1.0273-0.64552-1.0273h-6.316c-0.35876 0-0.64552 0.45678-0.64552 1.0273z" fill-opacity=".15686" stroke-width="1.54"/>
  <path d="m3.0001 14.396c0 0.33353 0.33128 0.60386 0.73734 0.60386h8.5253c0.40786 0 0.73734-0.27033 0.73734-0.60386v-11.714c0-0.334-0.33008-0.60386-0.73734-0.60386h-1.5136v-0.47397c0-0.33401-0.3283-0.60386-0.73734-0.60386h-3.9594c-0.40784-5.1977e-4 -0.74012 0.26985-0.74012 0.60386v0.47397h-1.5748c-0.40605 0-0.73734 0.26983-0.73734 0.60386zm1.1964-0.96843v-9.4612c0-0.29381 0.28676-0.53322 0.64552-0.53322h6.316c0.35876 0 0.64552 0.23941 0.64552 0.53322v9.4612c0 0.29381-0.28676 0.52866-0.64552 0.52866h-6.316c-0.35876 0-0.64552-0.23485-0.64552-0.52866z" stroke-width="1.105"/>
  <path d="m4.1946 10.552h0.00278l-0.00278-1.8594z" fill-opacity=".66667" stroke-width=".91449"/>
 </g>
</svg>
