<svg version="1.1" viewBox="0 0 16 16" xmlns="http://www.w3.org/2000/svg">
 <path class="error" d="m3.0001 14.396c0 0.33353 0.33128 0.60386 0.73734 0.60386h8.5253c0.40786 0 0.73734-0.27033 0.73734-0.60386v-11.714c0-0.334-0.33008-0.60386-0.73734-0.60386h-1.5136v-0.47397c0-0.33401-0.3283-0.60386-0.73734-0.60386h-3.9594c-0.40784-5.2065e-4 -0.74012 0.26985-0.74012 0.60386v0.47397h-1.5748c-0.40605 0-0.73734 0.26983-0.73734 0.60386zm1.1964-0.96843v-9.4612c0-0.29381 0.28676-0.53322 0.64552-0.53322h6.316c0.35876 0 0.64552 0.23941 0.64552 0.53322v9.4612c0 0.29381-0.28676 0.52866-0.64552 0.52866h-6.316c-0.35876 0-0.64552-0.23485-0.64552-0.52866z" fill="#da1636" stroke-width="1.105"/>
 <path class="error" d="m5.1697 6.3903c-0.21069 0.21069-0.21069 0.54902 0 0.75971l1.5394 1.5394-1.5794 1.5794c-0.18814 0.18814-0.18814 0.4916 0 0.67974l0.59977 0.59977c0.18814 0.18814 0.4916 0.18814 0.67974 0l1.5794-1.5794 1.5394 1.5394c0.21069 0.21069 0.54902 0.21069 0.75971 0l0.5198-0.5198c0.21069-0.21069 0.21069-0.54902 0-0.75971l-1.5394-1.5394 1.5794-1.5794c0.18814-0.18814 0.18814-0.4916 1e-6 -0.67974l-0.59977-0.59977c-0.18814-0.18814-0.4916-0.18814-0.67974 5e-7l-1.5794 1.5794-1.5394-1.5394c-0.21069-0.21069-0.54902-0.21069-0.75971 0z" fill="#da1636" fill-rule="evenodd" stroke-width="2.2878"/>
</svg>
