<svg version="1.1" viewBox="0 0 16 16" xmlns="http://www.w3.org/2000/svg">
 <g transform="matrix(.90909 0 0 .875 .72727 1)">
  <path d="m3.8174 14.207h8.3678v-10.767c0-0.3636-0.31544-0.65987-0.71007-0.65987h-6.9477c-0.39463-2e-6 -0.71007 0.29627-0.71007 0.65987z" fill="#bebebe" fill-opacity=".15686" stroke-width="1.2893"/>
  <path class="error" d="m3.8143 14.207 0.00297 0.43148c0 0.09362 0.31544 0.16856 0.71007 0.16856h6.9476c0.39463 0 0.71008-0.07494 0.71007-0.16856v-0.43148z" fill="#d33636" stroke-width=".65422"/>
  <path d="m2.5001 15.31c0 0.38118 0.36441 0.69013 0.81108 0.69013h9.3778c0.44865 0 0.81108-0.30895 0.81108-0.69013v-13.388c0-0.38172-0.36308-0.69013-0.81108-0.69013h-1.665v-0.54169c0-0.38173-0.36112-0.69013-0.81108-0.69013h-4.3553c-0.44863-5.9504e-4 -0.81413 0.3084-0.81413 0.69013v0.54169h-1.7323c-0.44665 0-0.81108 0.30837-0.81108 0.69013zm1.316-1.1068v-10.813c0-0.33578 0.31544-0.60939 0.71007-0.60939h6.9476c0.39463 0 0.71007 0.27361 0.71007 0.60939v10.813c0 0.33578-0.31544 0.60418-0.71007 0.60418h-6.9476c-0.39463 0-0.71007-0.2684-0.71007-0.60418z" fill="#bebebe" stroke-width="1.239"/>
  <path class="info" d="m5.0614 9.4695v-0.026725l3.2597-1.6776-1.9528-4.4716 4.5697 4.8486-3.2627 1.6805 1.9528 4.4716z" fill="#0d68c3" opacity=".8" stroke-width="1.0949"/>
 </g>
</svg>
