<svg version="1.1" viewBox="0 0 16 16" xmlns="http://www.w3.org/2000/svg">
 <path class="warning" d="m4.8418 3.4238c-0.35901 0-0.64453 0.050962-0.64453 0.11523v9.8985l0.0039063 0.49805c0 0.01483 0.28578 0.02539 0.64453 0.025391h6.3164c0.35876 0 0.6465-0.010561 0.64648-0.025391v-0.49805h-0.001953v-8.9258h0.001953v-0.97266c9e-6 -0.064273-0.28551-0.11523-0.64453-0.11523h-6.3223zm1.6797 0.45508 4.1523 4.2441-2.9648 1.4688 1.7754 3.9141-4.1523-4.2227v-0.023438l2.9629-1.4668-1.7734-3.9141z" fill="#f67d42"/>
 <path d="m3.0001 14.396c0 0.33353 0.33128 0.60386 0.73734 0.60386h8.5253c0.40786 0 0.73734-0.27033 0.73734-0.60386v-11.714c0-0.334-0.33008-0.60386-0.73734-0.60386h-1.5136v-0.47397c0-0.33401-0.32829-0.60386-0.73734-0.60386h-3.9594c-0.40784-5.2066e-4 -0.74012 0.26985-0.74012 0.60386v0.47397h-1.5748c-0.40605 0-0.73734 0.26983-0.73734 0.60386zm1.1964-0.96843v-9.4612c0-0.29381 0.28676-0.53322 0.64552-0.53322h6.316c0.35876 0 0.64552 0.23941 0.64552 0.53322v9.4612c0 0.29381-0.28676 0.52866-0.64552 0.52866h-6.316c-0.35876 0-0.64552-0.23485-0.64552-0.52866z" fill="#bebebe" stroke-width="1.105"/>
 <path d="m4.1968 10.556h0.00278l-0.00278-1.8594z" fill="#bebebe" fill-opacity=".66667" stroke-width=".91449"/>
 <path class="info" d="m5.3318 9.2835v-0.023382l2.9632-1.4679-1.7752-3.9127 4.1542 4.2426-2.966 1.4705 1.7752 3.9127z" fill="#0d68c3" opacity=".8" stroke-width=".97643"/>
</svg>
